<?xml version="1.0" standalone="no"?>
<!DOCTYPE svg PUBLIC "-//W3C//DTD SVG 20010904//EN"
 "http://www.w3.org/TR/2001/REC-SVG-20010904/DTD/svg10.dtd">
<svg version="1.0" xmlns="http://www.w3.org/2000/svg"
 width="509.000000pt" height="413.000000pt" viewBox="0 0 509.000000 413.000000"
 preserveAspectRatio="xMidYMid meet">

<g transform="translate(0.000000,413.000000) scale(0.100000,-0.100000)"
fill="#000000" stroke="none">
<path d="M591 4119 c-149 -26 -271 -90 -381 -199 -67 -67 -143 -181 -130 -193
3 -3 41 -8 85 -12 44 -3 122 -13 175 -21 129 -19 161 -23 260 -27 47 -2 135
-8 195 -13 178 -15 455 -7 586 15 97 16 141 29 212 61 12 6 33 12 47 15 34 6
101 35 123 53 9 8 17 12 17 7 0 -4 6 -2 14 4 8 6 31 14 52 16 22 3 44 12 50
19 5 8 22 18 37 21 15 4 27 11 27 17 0 5 5 6 10 3 6 -3 10 -1 10 5 0 6 4 8 10
5 15 -9 45 11 45 32 0 10 6 17 12 16 7 -2 12 0 11 5 -1 4 10 20 24 35 19 20
33 27 47 22 10 -3 22 -1 26 4 8 14 -96 65 -187 93 -72 21 -84 22 -698 24 -348
1 -649 -2 -679 -7z"/>
<path d="M2675 4101 c-44 -18 -60 -49 -63 -127 -3 -41 0 -74 4 -75 139 -11
187 -18 195 -26 11 -11 10 -11 -133 2 l-68 6 0 -35 0 -36 139 2 c101 2 142 0
150 -9 7 -7 23 -13 36 -13 13 0 27 -4 30 -10 3 -5 17 -10 31 -10 14 0 22 4 19
10 -4 6 14 10 47 10 72 0 129 11 122 22 -4 5 -33 6 -71 2 -46 -5 -64 -3 -59 4
11 18 88 24 136 12 25 -7 65 -14 89 -17 25 -3 61 -14 80 -25 20 -12 65 -24
101 -29 36 -5 100 -13 142 -18 42 -6 87 -8 100 -6 13 2 73 6 135 9 98 4 111 2
106 -11 -5 -14 1 -15 43 -9 52 8 82 25 49 27 -34 3 96 17 165 18 36 1 108 10
160 21 52 11 131 20 175 20 95 0 125 7 125 27 0 11 -4 13 -12 6 -7 -6 -42 -13
-78 -16 -39 -3 -59 -2 -49 3 8 5 37 10 65 11 27 1 54 6 60 10 13 10 175 39
218 39 l30 0 -22 23 c-21 21 -30 22 -150 20 -126 -2 -127 -1 -72 12 30 8 72
14 93 15 20 0 37 4 37 9 0 14 -107 25 -215 22 -55 -2 -97 0 -93 4 14 15 -26
34 -57 28 -27 -6 -29 -5 -16 10 7 9 10 18 5 19 -5 0 -13 2 -19 3 -5 2 -14 3
-20 4 -5 1 -3 6 5 11 20 13 -4 14 -28 1 -22 -12 -110 4 -132 24 -14 13 -114
15 -766 14 -412 0 -758 -4 -769 -8z m1620 -237 c-18 -9 -65 -17 -115 -19 l-85
-4 85 18 c47 11 99 19 115 20 l30 1 -30 -16z m-1245 2 c0 -3 -4 -8 -10 -11 -5
-3 -10 -1 -10 4 0 6 5 11 10 11 6 0 10 -2 10 -4z m1467 -2 c-3 -3 -44 -9 -91
-13 -47 -4 -82 -3 -78 1 6 6 32 9 146 16 16 1 27 -1 23 -4z m-1614 -11 c-7 -2
-19 -2 -25 0 -7 3 -2 5 12 5 14 0 19 -2 13 -5z m907 -43 c7 -14 21 -20 43 -20
28 -1 30 -2 13 -12 -27 -15 -92 6 -99 32 -7 27 28 27 43 0z"/>
<path d="M4412 4078 c5 -14 78 -22 78 -9 0 12 -26 21 -57 21 -15 0 -23 -5 -21
-12z"/>
<path d="M4550 4064 c-14 -8 -17 -13 -7 -10 10 3 33 6 50 7 27 0 29 2 12 9
-27 11 -26 12 -55 -6z"/>
<path d="M2105 3990 c-3 -5 1 -10 10 -10 9 0 13 5 10 10 -3 6 -8 10 -10 10 -2
0 -7 -4 -10 -10z"/>
<path d="M4441 3757 c-25 -7 -46 -18 -49 -25 -4 -13 92 -8 157 9 19 4 38 6 43
3 4 -3 8 0 8 5 0 6 -10 11 -22 11 -13 0 -39 2 -58 5 -19 2 -55 -2 -79 -8z"/>
<path d="M3073 3748 c2 -7 12 -13 22 -13 10 0 20 6 23 13 2 7 -6 12 -23 12
-17 0 -25 -5 -22 -12z"/>
<path d="M4220 3750 c0 -5 4 -10 9 -10 6 0 13 5 16 10 3 6 -1 10 -9 10 -9 0
-16 -4 -16 -10z"/>
<path d="M3028 3743 c6 -2 18 -2 25 0 6 3 1 5 -13 5 -14 0 -19 -2 -12 -5z"/>
<path d="M3860 3720 c-12 -8 -11 -10 8 -10 12 0 22 5 22 10 0 13 -11 13 -30 0z"/>
<path d="M1791 3397 c-10 -10 -42 -16 -107 -20 -36 -2 -102 -39 -103 -58 -1
-11 -69 -79 -79 -79 -6 0 -12 4 -14 9 -4 11 -98 21 -98 9 0 -4 -7 -8 -15 -8
-8 0 -15 5 -15 11 0 7 -10 9 -26 6 -17 -3 -24 -1 -20 8 3 9 -13 15 -54 19 -64
7 -160 -2 -160 -15 0 -4 -13 -3 -30 2 -16 6 -30 15 -30 19 0 11 -58 40 -80 40
-10 0 -23 -7 -30 -15 -7 -8 -22 -15 -34 -16 -11 0 -15 -3 -8 -6 6 -2 12 -9 12
-15 0 -14 -124 1 -153 19 -6 3 -7 1 -3 -5 5 -9 -8 -12 -46 -11 -29 0 -46 3
-38 6 41 17 48 50 9 50 -16 0 -27 -3 -24 -5 3 -3 -3 -11 -13 -18 -10 -8 -12
-13 -4 -14 6 0 12 -3 12 -7 0 -11 -121 -9 -144 2 -15 6 -17 5 -11 -5 6 -10 4
-11 -11 -5 -10 5 -44 11 -74 13 -30 2 -60 8 -65 12 -6 5 -38 6 -73 4 -62 -4
-73 1 -49 25 6 8 -1 6 -16 -4 -21 -14 -31 -15 -40 -6 -14 14 -77 15 -77 0 0
-5 5 -7 12 -3 7 4 8 3 4 -4 -4 -7 -27 -12 -52 -12 l-44 0 0 -72 c0 -40 4 -78
8 -84 5 -7 27 -8 67 -3 107 13 182 11 200 -7 21 -21 13 -29 -13 -13 -16 10
-27 8 -65 -10 -46 -22 -87 -22 -87 1 0 7 4 7 13 0 10 -8 24 -8 52 -1 31 9 36
13 22 20 -17 10 -59 5 -103 -11 -15 -6 -36 -8 -47 -4 -14 4 -18 2 -15 -7 3 -8
12 -14 21 -14 30 0 28 -13 -2 -20 -36 -8 -36 -5 -15 -76 50 -170 213 -359 359
-415 48 -18 64 -13 69 22 2 10 20 29 40 42 21 13 35 18 30 10 -5 -8 3 -6 20 5
27 18 28 18 41 0 7 -10 11 -21 9 -25 -3 -5 4 -8 15 -8 11 0 23 -4 26 -10 3 -5
3 -10 -2 -10 -4 0 -13 -11 -20 -25 -9 -21 -9 -25 6 -25 9 0 26 6 36 14 10 7
28 11 39 8 19 -5 19 -4 7 11 -7 9 -20 17 -28 17 -19 0 -6 21 35 55 23 20 36
25 44 17 6 -6 26 -8 46 -5 21 4 33 2 29 -3 -3 -6 -2 -16 3 -24 10 -17 132 -18
138 -1 2 6 11 11 21 11 9 0 27 7 39 16 19 13 22 13 22 0 0 -13 4 -13 32 2 18
9 36 22 40 27 5 6 8 5 8 -3 0 -10 5 -10 20 -2 11 6 20 20 20 31 0 11 -4 18 -8
15 -4 -2 -13 -2 -19 2 -15 10 3 52 22 52 8 0 15 5 15 11 0 6 -7 8 -17 5 -15
-6 -15 -5 1 13 16 18 16 21 1 51 -21 40 -7 60 21 29 14 -16 15 -23 7 -26 -7
-3 -13 -9 -13 -15 0 -6 7 -8 15 -4 10 4 15 -1 15 -14 0 -11 -5 -20 -12 -20 -6
0 -9 -2 -6 -5 3 -3 12 -3 21 1 21 8 13 57 -19 106 -28 44 -28 45 -9 45 8 0 12
-4 9 -9 -3 -4 2 -8 11 -8 9 0 14 -4 11 -9 -3 -4 3 -16 13 -25 10 -9 21 -35 25
-56 l6 -40 48 7 c54 7 90 22 57 24 -11 0 4 7 33 15 36 10 58 11 70 5 14 -9 10
-11 -18 -12 -24 -1 -28 -3 -12 -6 27 -5 114 26 106 38 -3 5 4 9 16 9 12 0 18
5 15 10 -4 6 -10 8 -15 5 -13 -8 -41 6 -34 17 4 6 -21 8 -64 6 -38 -2 -68 -6
-66 -9 7 -12 -32 -17 -72 -9 l-39 7 45 12 c25 7 66 14 92 15 25 0 44 4 41 9
-6 11 56 7 107 -7 25 -6 44 -17 42 -24 -3 -16 29 -15 53 1 31 21 125 45 125
31 0 -4 -10 -17 -22 -29 -36 -37 -47 -52 -41 -59 4 -3 -1 -6 -10 -6 -10 0 -17
-5 -17 -11 0 -5 -4 -8 -9 -5 -5 4 -8 -5 -6 -19 1 -15 -3 -25 -11 -25 -14 0
-37 34 -29 42 3 3 -4 13 -15 23 -11 10 -20 14 -20 9 0 -5 -12 -11 -27 -12 -16
-1 -36 -11 -45 -23 -10 -12 -23 -17 -29 -13 -7 4 -9 3 -6 -3 4 -6 0 -13 -8
-17 -8 -3 -15 -1 -15 4 0 16 -20 12 -47 -10 -25 -19 -22 -23 19 -23 10 0 14
-5 11 -13 -3 -8 -2 -21 1 -30 5 -13 9 -14 21 -4 8 7 24 10 36 7 16 -4 18 -3 8
9 -9 11 -9 17 1 29 7 8 16 12 21 9 5 -3 9 -1 9 5 0 5 8 9 18 9 9 -1 27 2 38 6
16 5 27 1 40 -16 11 -13 35 -32 56 -42 22 -12 34 -25 31 -33 -3 -9 0 -11 10
-7 9 3 24 1 34 -5 14 -8 9 -9 -22 -6 -77 9 -85 13 -123 59 -14 17 -52 22 -52
7 0 -5 -9 -11 -20 -14 -25 -7 -26 -27 -1 -34 11 -3 25 -19 32 -36 7 -17 15
-25 17 -18 3 9 9 9 26 -2 36 -24 132 -51 152 -42 11 4 46 9 79 11 37 2 64 8
70 17 13 18 38 2 43 -28 5 -26 17 -38 42 -42 13 -2 20 3 20 14 0 22 6 14 14
-19 5 -23 3 -26 -11 -21 -10 4 -14 2 -10 -4 4 -6 20 -16 37 -21 l30 -11 -16
25 c-15 22 -15 24 2 25 18 0 18 1 -1 9 -11 5 -16 9 -11 9 5 1 3 7 -3 14 -6 8
-7 17 -3 22 4 4 -5 5 -19 2 -18 -5 -31 -2 -39 8 -10 13 -8 16 18 21 31 6 31 7
14 30 -9 13 -22 22 -29 19 -6 -2 -14 7 -17 21 -8 29 -36 32 -43 4 -6 -24 -1
-23 -50 -6 -25 9 -45 11 -56 5 -10 -6 -18 -5 -23 2 -5 8 -8 8 -14 0 -5 -8 -14
-5 -31 9 -13 12 -18 19 -12 15 7 -3 21 -1 30 4 10 6 12 11 6 11 -7 0 -13 7
-13 16 0 10 -6 14 -14 11 -8 -3 -17 1 -20 9 -3 9 -1 12 4 9 14 -9 12 8 -2 25
-10 11 -9 11 7 0 11 -8 22 -18 25 -21 3 -4 14 -9 25 -11 11 -2 19 -9 18 -15
-1 -6 9 -13 22 -16 14 -2 25 0 25 4 0 5 -8 9 -17 9 -15 0 -16 2 -3 10 8 5 34
9 58 8 27 -1 38 -4 30 -10 -10 -6 -10 -10 2 -18 19 -13 53 -13 45 0 -9 15 107
3 141 -15 17 -9 30 -11 32 -5 2 6 12 4 23 -4 22 -15 63 -10 52 6 -3 6 0 8 8 6
8 -3 13 -10 12 -16 -1 -5 9 -13 23 -16 14 -4 22 -11 19 -16 -3 -6 -1 -10 5
-10 6 0 9 -4 5 -9 -8 -13 31 -24 57 -15 21 6 21 7 3 20 -18 13 -17 14 11 16
16 0 39 0 52 -1 19 -1 22 3 22 34 0 19 -4 36 -10 36 -5 1 -14 2 -19 3 -5 0
-13 5 -18 10 -5 5 4 6 20 2 l29 -7 -3 48 c-3 60 -8 73 -24 73 -8 0 -12 -8 -10
-20 4 -19 2 -19 -20 -4 -14 9 -30 14 -37 11 -8 -3 -3 -9 12 -15 14 -6 20 -11
14 -11 -18 -1 -64 25 -57 32 3 4 -6 7 -21 7 -15 0 -34 6 -41 13 -11 12 -2 14
58 12 40 -1 84 -5 100 -9 l27 -8 0 153 0 154 -90 2 c-49 1 -92 -2 -95 -8 -9
-14 -46 -11 -78 6 -16 8 -48 17 -70 19 -23 2 -55 11 -72 20 -16 9 -35 16 -41
16 -6 0 -22 10 -36 23 -46 41 -91 61 -144 62 -29 1 -57 -2 -63 -8z m-1296
-154 c-8 -8 -23 -13 -32 -11 -15 3 -15 4 1 20 9 9 23 15 31 12 13 -5 13 -8 0
-21z m255 17 c0 -5 -3 -9 -7 -9 -20 3 -34 -2 -28 -11 3 -5 0 -10 -8 -10 -8 0
-17 7 -20 14 -4 10 -1 13 7 10 8 -3 17 -1 21 5 8 14 35 14 35 1z m93 -11 c4
-17 3 -19 -6 -10 -6 6 -27 12 -46 12 l-36 2 40 7 c22 4 41 8 41 9 1 0 4 -9 7
-20z m115 12 c11 -7 11 -9 -2 -14 -9 -4 -16 -2 -16 4 0 6 -7 9 -15 5 -8 -3
-15 -1 -15 4 0 12 30 13 48 1z m-373 -13 c14 -6 25 -18 25 -26 0 -11 -3 -12
-13 -4 -7 7 -29 18 -48 26 -27 12 -29 15 -12 16 12 0 34 -5 48 -12z m490 -25
c28 -3 57 -6 65 -7 76 -9 11 -54 -67 -47 -18 1 -16 21 2 21 8 0 15 4 15 9 0
11 -50 21 -119 22 -31 1 -67 5 -81 10 -25 8 84 4 185 -8z m-991 -1 c3 -5 -1
-9 -9 -9 -8 0 -12 4 -9 9 3 4 7 8 9 8 2 0 6 -4 9 -8z m471 -12 c-3 -5 9 -13
27 -18 26 -7 34 -5 39 7 4 9 5 19 3 23 -3 4 15 -4 39 -17 23 -13 66 -29 95
-35 37 -8 52 -16 52 -28 0 -12 -3 -13 -12 -4 -17 17 -28 15 -28 -5 0 -15 -2
-16 -10 -3 -5 8 -10 11 -10 5 0 -5 -6 -3 -13 6 -18 24 -59 17 -69 -12 -7 -22
-7 -23 7 -5 9 12 20 16 32 12 12 -5 14 -9 6 -14 -15 -9 3 -33 37 -49 l25 -12
-27 0 c-15 -1 -39 -5 -53 -11 -14 -5 -41 -12 -58 -14 -18 -3 -47 -8 -64 -12
-34 -7 -33 -7 -36 39 -3 33 14 77 28 77 9 0 14 -4 11 -9 -3 -4 1 -17 9 -27 14
-18 14 -18 15 2 0 12 -13 40 -30 62 -30 41 -39 69 -20 57 6 -4 8 -10 5 -15z
m-124 -41 c-12 -13 -21 -18 -21 -11 0 15 -32 3 -64 -25 -24 -21 -56 -31 -56
-17 0 30 46 53 115 58 6 1 16 7 24 14 23 22 25 5 2 -19z m1079 0 c0 -5 -4 -9
-8 -9 -5 0 -9 7 -9 15 0 8 4 12 9 9 4 -3 8 -9 8 -15z m-299 -15 c19 -23 19
-85 -1 -82 -14 3 -41 76 -33 91 7 12 20 8 34 -9z m-341 -15 c0 -5 -6 -9 -13
-9 -8 0 -14 6 -14 14 0 8 6 12 14 9 7 -3 13 -9 13 -14z m531 -3 c18 -15 24
-26 16 -29 -7 -2 -1 -14 18 -30 17 -15 24 -27 18 -27 -19 0 -93 75 -93 94 0
22 7 20 41 -8z m-478 0 c4 -10 0 -12 -14 -9 -22 6 -26 23 -5 23 8 0 16 -6 19
-14z m1016 10 c-12 -10 -79 -16 -79 -6 0 5 19 10 42 10 23 0 39 -2 37 -4z
m-1195 -42 c3 -8 2 -12 -4 -9 -6 3 -10 10 -10 16 0 14 7 11 14 -7z m116 -19
c0 -8 5 -15 11 -15 5 0 7 5 4 10 -3 6 -1 10 4 10 6 0 11 -7 11 -15 0 -15 -26
-20 -54 -9 -12 5 -13 9 -3 20 16 18 27 17 27 -1z m929 6 c10 -6 -13 -12 -69
-17 -69 -6 -88 -11 -107 -31 -13 -13 -21 -28 -18 -33 8 -13 -21 -13 -46 0 -28
15 -23 33 14 52 56 30 196 48 226 29z m-294 -11 c7 -12 -2 -12 -30 0 -19 8
-19 9 2 9 12 1 25 -3 28 -9z m-1389 -37 c-10 -10 -19 5 -10 18 6 11 8 11 12 0
2 -7 1 -15 -2 -18z m415 -18 c5 -7 -1 -10 -19 -9 -15 1 -28 2 -30 3 -1 0 5 13
15 28 16 24 18 25 22 7 2 -10 7 -24 12 -29z m-106 25 c-3 -5 -12 -10 -18 -10
-7 0 -6 4 3 10 19 12 23 12 15 0z m791 -32 c-18 -10 -39 -2 -31 12 3 4 15 6
26 3 19 -5 19 -7 5 -15z m730 -11 c1 -25 -2 -28 -20 -22 -12 4 -30 8 -42 9
-11 1 -26 6 -34 11 -9 5 -15 4 -18 -3 -4 -13 -22 -6 -22 8 0 13 59 29 100 27
31 -2 35 -5 36 -30z m-1619 -13 c-3 -3 -12 -4 -19 -1 -8 3 -5 6 6 6 11 1 17
-2 13 -5z m1728 -29 c11 -4 27 -8 35 -9 95 -9 124 -46 45 -58 -12 -2 -20 3
-20 11 0 8 -10 15 -22 16 -13 1 -23 -2 -23 -7 0 -19 -36 -5 -61 25 -22 25 -30
29 -37 18 -7 -9 -12 -10 -16 -2 -4 6 -2 11 3 11 6 0 11 7 11 14 0 13 5 13 33
2 17 -7 41 -17 52 -21z m-172 8 c-7 -2 -19 -2 -25 0 -7 3 -2 5 12 5 14 0 19
-2 13 -5z m102 -43 c8 -13 -5 -13 -25 0 -13 8 -13 10 2 10 9 0 20 -4 23 -10z
m232 -6 c-3 -3 -12 -4 -19 -1 -8 3 -5 6 6 6 11 1 17 -2 13 -5z m-869 -37 c14
4 14 3 2 -5 -16 -12 -30 -7 -29 11 0 9 2 9 5 0 3 -7 13 -9 22 -6z m1062 -3 c0
-2 -7 -4 -15 -4 -8 0 -15 4 -15 10 0 5 7 7 15 4 8 -4 15 -8 15 -10z m-319 -20
c8 -9 21 -13 35 -10 13 4 29 0 38 -9 8 -8 24 -15 35 -15 11 0 23 -4 26 -10 9
-15 -36 -11 -65 5 -14 8 -34 14 -46 15 -11 0 -29 9 -39 20 -10 11 -13 20 -8
20 6 0 16 -7 24 -16z m-982 -77 c-2 -1 -13 -9 -24 -17 -19 -14 -19 -14 -6 3 7
9 18 17 24 17 6 0 8 -1 6 -3z m-87 -68 c-13 -11 -30 -19 -40 -17 -13 3 -10 8
13 21 41 22 53 21 27 -4z m-116 -20 c3 -6 1 -16 -5 -22 -8 -8 -11 -8 -11 1 0
7 -8 12 -17 12 -15 0 -16 2 -3 10 20 13 27 12 36 -1z"/>
<path d="M1870 3020 c-13 -8 -12 -10 3 -10 9 0 17 5 17 10 0 12 -1 12 -20 0z"/>
<path d="M263 3358 c-9 -11 2 -13 57 -12 45 1 68 -3 67 -10 -3 -14 41 -20 57
-7 7 6 37 9 67 8 30 -2 59 0 64 4 6 4 19 9 30 12 11 3 -7 5 -40 5 -33 -1 -112
2 -176 6 -90 6 -118 4 -126 -6z"/>
<path d="M3516 3303 c-1 -2 -115 -4 -252 -5 -349 -4 -455 -13 -209 -19 105 -2
218 -3 252 -2 42 1 62 -3 60 -10 -1 -8 21 -14 58 -18 33 -3 58 -7 55 -8 -18
-8 -310 -9 -310 -1 0 6 26 11 58 11 l57 2 -56 6 c-31 3 -103 4 -160 1 -93 -4
-99 -6 -55 -12 27 -5 70 -9 95 -10 39 -1 -102 -18 -162 -19 -15 0 -16 -3 -7
-15 9 -10 41 -14 124 -16 l111 -2 -90 -5 c-49 -3 -99 -12 -110 -19 -18 -11
-16 -12 15 -6 19 4 42 7 50 7 28 -2 94 -13 98 -18 3 -2 16 2 31 9 22 12 84 22
101 16 18 -5 120 -4 120 3 0 4 -9 7 -21 7 -11 0 -17 5 -14 10 3 6 43 10 88 10
147 0 308 12 304 23 -2 6 -25 12 -51 13 -26 1 -51 6 -54 10 -4 4 52 3 123 -1
125 -7 140 -7 168 -3 7 1 25 -2 41 -6 19 -5 26 -3 21 4 -5 7 0 11 11 10 38 -4
54 0 54 15 0 14 -17 20 -47 16 -6 -1 -15 4 -18 10 -5 8 9 10 49 7 31 -1 56 1
56 6 0 7 -577 6 -584 -1z m360 -10 c-4 -4 -41 -8 -84 -10 -53 -2 -72 0 -62 7
17 11 157 14 146 3z m-456 -23 c0 -5 -7 -7 -15 -4 -8 4 -15 8 -15 10 0 2 7 4
15 4 8 0 15 -4 15 -10z m-100 -76 c0 -2 -19 -4 -42 -3 -31 0 -37 3 -24 8 18 7
66 3 66 -5z"/>
<path d="M1448 3283 c6 -2 18 -2 25 0 6 3 1 5 -13 5 -14 0 -19 -2 -12 -5z"/>
<path d="M2838 3283 c7 -3 16 -2 19 1 4 3 -2 6 -13 5 -11 0 -14 -3 -6 -6z"/>
<path d="M4402 3286 c10 -12 178 -24 207 -16 19 6 9 9 -39 9 -36 1 -90 4 -120
7 -30 4 -52 4 -48 0z"/>
<path d="M4815 3270 c3 -5 13 -10 21 -10 8 0 14 5 14 10 0 6 -9 10 -21 10 -11
0 -17 -4 -14 -10z"/>
<path d="M4185 3250 c-36 -6 -33 -7 25 -8 45 0 59 2 45 8 -11 5 -22 8 -25 8
-3 -1 -23 -4 -45 -8z"/>
<path d="M4295 3209 c-51 -19 -73 -40 -101 -97 -18 -38 -13 -62 16 -69 11 -3
20 -9 20 -14 0 -16 -22 -10 -56 16 -18 14 -44 25 -58 25 -17 0 -31 9 -43 28
-35 55 -71 64 -114 28 -38 -32 -88 -34 -153 -6 l-46 19 -53 -23 c-29 -13 -59
-31 -66 -40 -7 -9 -18 -13 -24 -9 -14 9 -90 4 -97 -6 -5 -8 -45 -31 -54 -31
-3 0 -10 17 -16 38 -5 20 -13 42 -18 49 -10 16 -57 5 -86 -22 -21 -19 -26 -20
-47 -9 -50 28 -103 12 -159 -45 -26 -27 -70 -31 -70 -6 0 21 -38 43 -65 37
-14 -2 -25 -10 -25 -17 0 -7 -9 -15 -21 -18 -15 -4 -25 2 -40 26 -10 18 -20
36 -22 42 -2 5 -20 10 -39 11 -20 1 -41 5 -47 9 -6 3 -11 2 -11 -3 0 -15 -62
-12 -77 4 -8 8 -19 12 -24 9 -5 -4 -9 0 -9 8 0 8 -11 18 -24 21 -13 3 -31 9
-40 12 -14 6 -16 0 -10 -37 17 -121 65 -253 119 -325 l24 -31 63 10 c35 5 81
16 103 24 22 8 83 25 135 39 84 22 136 44 102 44 -7 0 -12 9 -12 20 0 11 5 20
10 20 6 0 10 -7 10 -16 0 -12 5 -14 18 -9 9 5 26 7 37 7 67 -4 120 0 139 10
19 10 20 10 7 -5 -7 -10 -20 -17 -27 -17 -8 0 -14 -4 -14 -10 0 -5 9 -10 20
-10 11 0 20 5 20 10 0 18 18 10 23 -10 3 -11 16 -24 29 -29 13 -5 30 -20 37
-34 19 -36 62 -52 102 -38 45 15 62 12 19 -4 -19 -7 -34 -17 -33 -23 2 -6 -3
-9 -11 -6 -14 5 -56 -40 -56 -60 0 -20 48 -57 92 -69 25 -8 43 -19 43 -27 0
-23 32 -77 49 -83 28 -11 682 -8 666 3 -13 9 -13 10 0 11 8 1 22 1 30 0 12 -2
13 0 1 7 -21 15 -3 33 27 28 15 -2 30 -5 34 -5 4 -1 10 -10 13 -21 8 -25 44
-26 129 -4 75 19 97 34 67 46 -12 4 -29 5 -39 1 -14 -5 -15 -3 -5 7 10 11 8
17 -7 30 -27 23 -11 45 29 37 20 -4 31 -2 31 5 0 8 -26 9 -89 5 -50 -3 -91 -2
-93 2 -2 4 -16 11 -31 15 -19 4 -26 3 -22 -4 3 -5 -3 -10 -14 -10 -14 0 -19
-5 -15 -14 4 -11 0 -13 -18 -9 -13 3 -28 9 -33 14 -6 4 -17 4 -25 -1 -8 -6
-33 -10 -55 -10 -23 0 -46 -5 -53 -12 -7 -7 -36 -10 -73 -9 -39 1 -59 -2 -55
-8 8 -13 -55 -25 -84 -16 -14 4 -18 10 -12 18 15 19 20 68 11 99 l-8 30 42 -7
c23 -4 54 -14 69 -21 32 -16 74 -18 83 -4 3 6 15 10 25 10 23 0 36 18 22 32
-5 5 -32 10 -59 11 -36 1 -49 6 -46 15 3 7 13 10 23 7 11 -4 20 1 24 12 4 10
13 31 22 46 14 24 20 27 49 21 39 -7 65 3 44 18 -10 7 -9 8 6 4 27 -7 49 8 42
28 -5 12 0 16 17 16 14 0 26 -3 29 -7 2 -5 2 -2 1 5 -2 7 7 12 22 12 20 0 24
-4 20 -18 -7 -21 48 -86 66 -80 7 3 20 19 30 37 17 31 17 33 -2 71 -18 36 -22
38 -49 30 -22 -6 -33 -4 -42 6 -9 12 -5 14 28 14 90 0 302 -35 370 -61 26 -10
64 7 112 51 33 31 48 36 104 32 28 -2 38 -26 14 -35 -15 -6 -67 -109 -67 -133
0 -8 -4 -13 -9 -10 -16 10 -43 -31 -36 -54 7 -22 8 -22 25 -4 51 53 143 284
125 314 -10 16 -62 12 -69 -5 -6 -16 -36 -21 -36 -6 0 5 -15 14 -32 20 -18 6
-46 27 -61 47 -28 34 -62 43 -92 23 -25 -16 -114 -30 -132 -20 -11 6 -51 7
-96 4 -73 -6 -78 -5 -103 21 -15 14 -36 26 -48 26 -11 0 -30 2 -41 4 -11 3
-42 -4 -70 -15z m70 -200 c7 -7 7 -10 0 -8 -5 2 -20 -1 -33 -5 -14 -5 -36 -3
-55 5 l-32 14 30 6 c34 8 75 2 90 -12z m-975 -9 c0 -5 -4 -10 -10 -10 -5 0
-10 5 -10 10 0 6 5 10 10 10 6 0 10 -4 10 -10z m-224 -19 c0 -15 -3 -17 -13
-9 -7 6 -13 14 -13 19 0 5 6 9 13 9 7 0 13 -9 13 -19z m40 5 c20 -21 17 -28
-6 -14 -11 7 -20 16 -20 20 0 12 10 9 26 -6z m704 -41 c0 -8 -4 -15 -10 -15
-5 0 -1 -23 10 -52 11 -28 18 -54 16 -56 -3 -2 -15 2 -28 9 -12 7 -48 14 -78
16 -30 2 -60 5 -67 8 -7 2 -15 -1 -19 -7 -4 -7 -9 -6 -15 3 -7 12 -9 12 -9 1
0 -10 -8 -12 -32 -6 -18 4 -41 7 -52 6 -35 -2 -4 13 47 23 46 9 52 13 55 37 3
29 12 33 77 41 74 10 105 7 105 -8z m328 -34 c10 -6 7 -10 -12 -13 -18 -4 -26
-1 -26 8 0 16 18 18 38 5z m-1258 -56 c0 -5 -5 -3 -10 5 -5 8 -10 20 -10 25 0
6 5 3 10 -5 5 -8 10 -19 10 -25z m1453 -218 c3 -8 -3 -13 -14 -13 -22 0 -25
12 -6 19 6 3 13 6 13 6 1 1 4 -5 7 -12z"/>
<path d="M2890 3190 c-11 -7 -7 -10 18 -10 20 0 31 4 27 10 -8 13 -26 13 -45
0z"/>
<path d="M3438 3183 c23 -2 59 -2 80 0 20 2 1 4 -43 4 -44 0 -61 -2 -37 -4z"/>
<path d="M3268 3133 c7 -3 16 -2 19 1 4 3 -2 6 -13 5 -11 0 -14 -3 -6 -6z"/>
<path d="M4735 2930 c-3 -5 -3 -14 0 -20 8 -13 115 -13 115 0 0 24 -102 41
-115 20z"/>
<path d="M3180 2828 c-19 -5 -42 -12 -50 -15 -8 -3 -21 -5 -27 -4 -7 1 -13 -5
-13 -14 0 -9 -4 -13 -10 -10 -5 3 -10 1 -10 -5 0 -6 -10 -8 -25 -4 -15 4 -25
2 -25 -5 0 -6 7 -11 15 -11 20 0 19 -17 -1 -28 -11 -6 -15 -17 -11 -31 3 -11
1 -21 -4 -21 -5 0 -7 -10 -4 -23 4 -15 1 -28 -9 -36 -9 -8 -16 -17 -16 -22 0
-13 73 -47 137 -64 69 -18 166 -7 194 24 10 10 31 25 47 32 34 15 67 63 58 85
-3 8 -11 12 -16 9 -6 -4 -10 -3 -8 2 1 4 -2 22 -6 40 -6 27 -17 37 -64 59 -31
15 -63 27 -69 27 -7 0 -13 5 -13 10 0 5 -6 7 -14 4 -8 -3 -16 -2 -18 2 -2 4
-19 4 -38 -1z m80 -68 c0 -5 -2 -10 -4 -10 -3 0 -8 5 -11 10 -3 6 -1 10 4 10
6 0 11 -4 11 -10z m13 -70 c3 -13 0 -20 -9 -20 -8 0 -14 9 -14 20 0 11 4 20 9
20 5 0 11 -9 14 -20z m77 10 c0 -5 -4 -10 -10 -10 -5 0 -10 5 -10 10 0 6 5 10
10 10 6 0 10 -4 10 -10z m-6 -75 c-7 -17 -20 -20 -28 -6 -4 5 0 12 6 14 23 9
28 7 22 -8z m-40 -34 c3 -5 0 -11 -7 -14 -8 -3 -14 1 -14 9 0 16 13 19 21 5z"/>
<path d="M1205 2810 c3 -5 10 -10 16 -10 5 0 9 5 9 10 0 6 -7 10 -16 10 -8 0
-12 -4 -9 -10z"/>
<path d="M1335 2810 c3 -5 10 -10 16 -10 5 0 9 5 9 10 0 6 -7 10 -16 10 -8 0
-12 -4 -9 -10z"/>
<path d="M2036 2791 c12 -11 76 -32 81 -27 6 6 -57 36 -76 36 -9 0 -11 -3 -5
-9z"/>
<path d="M2900 2790 c0 -13 11 -13 30 0 12 8 11 10 -7 10 -13 0 -23 -4 -23
-10z"/>
<path d="M1210 2765 c-7 -9 -8 -15 -2 -15 5 0 12 7 16 15 3 8 4 15 2 15 -2 0
-9 -7 -16 -15z"/>
<path d="M2185 2760 c-3 -6 1 -7 9 -4 18 7 21 14 7 14 -6 0 -13 -4 -16 -10z"/>
<path d="M1416 2748 c5 -13 1 -18 -14 -18 -11 0 -22 -7 -26 -15 -4 -10 1 -15
14 -15 11 0 20 5 20 11 0 6 7 9 15 5 19 -7 19 5 0 30 -13 16 -14 16 -9 2z"/>
<path d="M2238 2753 c7 -3 16 -2 19 1 4 3 -2 6 -13 5 -11 0 -14 -3 -6 -6z"/>
<path d="M1490 2738 c0 -4 15 -12 33 -15 l32 -7 -30 -6 c-19 -5 -39 -1 -55 8
-20 13 -23 13 -14 1 6 -8 10 -22 9 -32 -2 -9 1 -15 6 -11 5 3 9 0 9 -5 0 -6 5
-11 11 -11 5 0 7 5 3 11 -5 8 1 10 20 7 29 -6 37 8 9 15 -15 4 -15 5 2 6 11 0
26 -3 34 -8 15 -10 41 -4 41 9 0 13 -49 40 -80 44 -16 2 -30 -1 -30 -6z"/>
<path d="M2165 2730 c-11 -18 6 -30 43 -30 l37 1 -24 19 c-25 22 -46 25 -56
10z"/>
<path d="M1262 2690 c-24 -23 -26 -29 -14 -48 11 -17 38 14 40 46 1 27 1 27
-26 2z"/>
<path d="M743 2687 c4 -11 2 -14 -8 -11 -7 3 -19 -4 -25 -16 -8 -15 -8 -20 -1
-16 6 4 11 2 11 -3 0 -6 9 -11 20 -11 11 0 20 7 20 16 0 8 4 12 10 9 5 -3 18
-1 27 4 10 6 15 11 11 12 -5 1 -11 2 -15 3 -5 1 -19 8 -32 15 -21 12 -23 11
-18 -2z"/>
<path d="M2390 2655 c0 -15 6 -25 14 -25 8 0 17 -7 20 -16 4 -9 13 -14 21 -10
9 3 15 0 15 -10 0 -8 5 -12 10 -9 14 8 13 62 -1 71 -6 3 -15 1 -19 -6 -6 -10
-12 -7 -26 9 -24 28 -34 27 -34 -4z"/>
<path d="M4780 2660 c0 -5 -6 -7 -13 -4 -7 2 -21 -4 -31 -15 -10 -11 -22 -19
-25 -16 -4 2 -7 -5 -7 -16 0 -25 4 -24 59 11 47 30 60 50 32 50 -8 0 -15 -4
-15 -10z"/>
<path d="M1320 2645 c-7 -8 -10 -21 -7 -29 3 -8 -3 -25 -13 -38 -23 -31 -14
-46 27 -44 18 0 33 2 33 4 0 11 -28 28 -40 24 -8 -3 -2 9 14 26 16 17 33 29
38 26 4 -3 8 -1 8 5 0 5 -9 13 -20 16 -11 4 -18 11 -15 16 10 15 -12 10 -25
-6z"/>
<path d="M1495 2639 c-12 -18 4 -74 25 -87 12 -7 20 -8 20 -2 0 5 -4 10 -10
10 -5 0 -10 4 -10 10 0 5 7 7 15 4 8 -4 15 -1 15 5 0 6 -6 10 -12 9 -8 -2 -13
7 -12 20 0 12 -5 22 -13 22 -8 0 -11 5 -8 10 3 6 4 10 1 10 -3 0 -8 -5 -11
-11z"/>
<path d="M2120 2646 c0 -2 7 -7 16 -10 8 -3 12 -2 9 4 -6 10 -25 14 -25 6z"/>
<path d="M1010 2599 c-10 -23 -15 -27 -22 -17 -8 10 -9 10 -5 -2 2 -8 0 -24
-6 -35 -7 -14 0 -12 23 10 26 24 30 26 21 8 -14 -27 -14 -33 -1 -33 6 0 10 7
10 15 0 9 6 12 15 9 10 -4 15 0 15 11 0 11 5 15 15 11 12 -4 13 -2 2 15 -7 12
-19 18 -30 15 -9 -2 -15 0 -12 4 3 5 1 11 -4 14 -5 3 -14 -8 -21 -25z"/>
<path d="M1927 2612 c-22 -24 -13 -32 37 -31 35 1 38 2 16 9 -14 4 -19 8 -11
9 11 1 11 4 1 16 -16 19 -23 19 -43 -3z"/>
<path d="M2228 2623 c7 -3 16 -2 19 1 4 3 -2 6 -13 5 -11 0 -14 -3 -6 -6z"/>
<path d="M1656 2599 c-27 -32 -14 -54 33 -56 25 -1 39 2 35 8 -3 6 5 7 21 3
25 -6 26 -5 16 13 -5 11 -7 24 -3 28 4 5 2 5 -5 2 -6 -4 -18 -1 -26 7 -19 19
-52 16 -71 -5z m39 -37 c-3 -3 -15 -7 -26 -9 -16 -2 -18 -1 -7 11 7 7 19 11
26 9 7 -3 10 -8 7 -11z"/>
<path d="M2160 2610 c0 -6 7 -10 15 -10 8 0 15 2 15 4 0 2 -7 6 -15 10 -8 3
-15 1 -15 -4z"/>
<path d="M545 2599 c-4 -6 -5 -12 -2 -15 2 -3 7 2 10 11 7 17 1 20 -8 4z"/>
<path d="M1417 2558 c9 -10 19 -15 23 -13 5 3 10 0 12 -7 6 -17 38 -1 38 19 0
15 -8 18 -44 18 -42 0 -43 -1 -29 -17z m63 -8 c0 -5 -2 -10 -4 -10 -3 0 -8 5
-11 10 -3 6 -1 10 4 10 6 0 11 -4 11 -10z"/>
<path d="M2130 2576 c0 -3 9 -10 20 -16 11 -6 20 -8 20 -6 0 3 -9 10 -20 16
-11 6 -20 8 -20 6z"/>
<path d="M1250 2560 c-13 -8 -12 -10 3 -10 9 0 17 5 17 10 0 12 -1 12 -20 0z"/>
<path d="M1573 2550 c-1 -14 4 -20 18 -20 14 0 19 6 17 17 -5 26 -33 28 -35 3z"/>
<path d="M1890 2545 c0 -11 3 -15 8 -9 11 16 38 24 49 13 6 -6 15 -3 24 8 13
16 12 17 -3 5 -11 -9 -18 -9 -23 -3 -3 6 -17 10 -30 9 -18 -2 -25 -8 -25 -23z"/>
<path d="M2225 2553 c20 -15 20 -15 -2 -10 -13 3 -26 1 -29 -4 -3 -5 15 -9 40
-9 50 0 65 23 24 34 -42 11 -55 7 -33 -11z"/>
<path d="M1763 2315 c-33 -14 -58 -48 -48 -65 4 -6 10 -8 15 -5 5 3 12 -1 17
-8 4 -8 25 -17 45 -20 33 -5 86 -43 81 -58 -1 -3 9 -4 22 -1 14 2 25 0 25 -7
0 -5 7 -8 16 -4 8 3 26 -4 40 -18 19 -17 37 -23 73 -24 27 0 55 -6 63 -13 8
-6 17 -9 20 -7 3 3 17 1 32 -5 15 -5 25 -6 22 -2 -3 5 10 4 29 -2 18 -6 32
-13 30 -16 -2 -4 6 -6 18 -5 12 1 35 -5 52 -13 16 -9 37 -19 45 -22 9 -4 35
-6 58 -4 23 1 42 -1 42 -5 0 -12 46 -20 61 -10 7 4 21 3 30 -2 12 -6 20 -5 24
1 8 12 37 9 47 -4 4 -6 13 -4 22 3 10 8 16 9 16 3 0 -7 21 -10 58 -7 31 2 57
4 57 5 0 1 10 3 23 6 13 2 21 0 18 -4 -3 -5 17 -8 44 -8 28 1 50 4 50 7 0 4
33 7 73 7 104 1 220 8 237 16 14 6 56 13 105 19 19 2 20 9 20 113 0 122 -6
137 -62 161 -48 20 -1473 19 -1520 -2z"/>
<path d="M3524 2318 c-11 -5 -28 -22 -37 -38 -16 -26 -17 -99 -17 -834 0 -914
-2 -893 76 -1055 35 -72 62 -111 116 -166 44 -45 77 -71 85 -68 8 3 12 12 9
19 -3 7 -2 15 2 18 4 2 9 -6 10 -20 1 -13 -3 -24 -9 -24 -8 0 -8 -4 0 -14 16
-19 116 -37 144 -27 12 5 29 21 37 36 20 37 50 52 65 32 7 -10 20 -14 32 -11
11 3 24 1 28 -6 5 -8 13 -6 27 7 20 18 20 18 13 -61 -5 -53 -4 -77 3 -72 5 3
12 -1 16 -9 3 -8 12 -12 21 -9 8 3 15 1 15 -5 0 -15 839 -16 873 0 44 20 57
58 57 169 0 95 -1 102 -19 97 -10 -2 -25 -1 -32 4 -11 7 -10 9 3 9 9 0 19 4
22 8 3 5 -5 7 -17 6 -12 -1 -26 -3 -30 -3 -5 -1 -5 -5 -2 -11 3 -5 1 -10 -4
-10 -6 0 -11 4 -11 9 0 4 -11 6 -25 3 -14 -2 -25 -8 -25 -13 0 -21 -41 -6 -72
25 -24 24 -49 37 -84 44 -27 6 -59 14 -71 17 -15 5 -23 3 -23 -4 0 -8 -11 -10
-34 -5 -34 6 -103 13 -138 15 -19 0 -32 25 -17 34 5 4 17 4 27 1 37 -11 162
-15 162 -5 0 6 3 8 8 6 4 -3 16 -1 26 2 11 5 -4 8 -39 9 -32 0 -71 6 -86 12
-16 7 -37 9 -46 5 -10 -5 -25 -7 -32 -6 -8 2 -21 -5 -28 -14 -7 -11 -20 -16
-33 -12 -11 3 -18 1 -14 -4 3 -5 1 -9 -5 -9 -5 0 -11 5 -13 12 -3 9 -16 8 -51
-4 -43 -14 -47 -14 -45 1 2 10 -8 19 -29 25 -17 6 -34 18 -36 28 -3 11 -18 21
-36 24 -17 4 -34 11 -38 17 -3 5 -2 7 4 4 5 -3 49 -7 96 -8 48 -1 87 -4 87 -8
0 -3 -9 -12 -20 -19 -29 -18 -17 -30 35 -37 49 -8 141 11 149 31 5 13 -24 44
-46 48 -33 6 -58 18 -53 27 4 5 -21 9 -59 9 -70 0 -73 2 -96 67 -9 24 -8 26 3
11 8 -10 17 -14 21 -10 4 4 12 -1 17 -11 6 -9 16 -14 22 -11 7 4 9 4 5 -1 -9
-9 9 -35 23 -35 5 0 9 14 9 30 0 26 -4 30 -27 31 -16 0 -22 3 -15 6 23 9 62
-7 62 -25 0 -23 46 -57 90 -67 19 -4 40 -11 45 -15 14 -10 133 -32 143 -26 5
3 37 -1 72 -8 36 -8 70 -12 76 -9 7 2 15 0 19 -6 3 -7 -2 -11 -14 -11 -12 0
-21 -4 -21 -10 0 -5 9 -10 20 -10 12 0 17 -5 14 -14 -7 -18 -39 -27 -52 -14
-6 6 -12 6 -16 -1 -4 -6 7 -17 26 -25 31 -13 34 -12 56 10 27 28 28 28 35 10
4 -11 1 -13 -11 -9 -13 4 -12 2 3 -10 17 -13 22 -14 36 -1 21 18 40 18 33 -1
-5 -13 4 -15 55 -14 l61 2 0 568 c0 501 -2 568 -15 563 -8 -4 -15 -9 -15 -13
0 -4 -9 -7 -20 -8 -11 -1 -19 1 -17 5 3 10 -15 11 -40 1 -13 -5 -23 -13 -23
-20 0 -6 -16 -31 -36 -55 -20 -24 -34 -44 -30 -44 3 0 -4 -11 -16 -25 -12 -14
-27 -25 -34 -25 -6 0 -14 -7 -18 -15 -3 -8 -10 -15 -16 -15 -6 0 -9 4 -5 9 3
5 1 12 -4 15 -10 6 -19 -13 -27 -61 -7 -37 -15 -47 -25 -32 -6 10 -9 8 -9 -8
0 -16 -4 -21 -16 -16 -10 4 -12 8 -5 12 8 5 7 13 -3 26 -12 17 -16 18 -32 5
-16 -14 -16 -13 -6 7 16 28 5 58 -14 42 -8 -6 -14 -18 -14 -25 0 -8 -6 -14
-12 -14 -10 0 -10 -2 0 -9 8 -5 15 -26 16 -47 2 -21 8 -40 14 -42 17 -5 -9
-42 -30 -42 -13 0 -17 13 -21 63 -10 121 3 181 34 161 7 -4 9 -3 5 4 -8 13
-44 11 -73 -6 -13 -7 -23 -8 -23 -3 0 5 -3 17 -7 27 -5 14 -1 16 23 13 40 -6
68 22 49 48 -14 17 -14 17 -15 -3 0 -12 -7 -24 -15 -28 -9 -3 -15 0 -15 9 0
11 -9 15 -30 13 -51 -4 -69 -78 -56 -227 4 -42 11 -60 30 -78 20 -18 26 -20
26 -8 0 8 4 15 9 15 5 0 7 -9 4 -20 -3 -11 -11 -20 -19 -20 -13 0 -14 -12 -15
-152 0 -24 -4 -28 -29 -28 -16 0 -41 5 -55 12 -21 9 -32 8 -60 -5 l-34 -16 -6
28 c-3 16 -3 40 1 55 9 37 -32 165 -63 193 -13 13 -35 45 -49 73 -14 27 -32
50 -40 50 -7 0 -14 6 -14 13 0 29 -50 114 -78 132 -48 31 -72 108 -37 121 9 4
15 19 15 35 0 16 9 38 20 49 32 32 28 102 -7 135 -16 14 -34 23 -41 20 -10 -4
-11 1 -6 18 12 36 7 55 -24 95 -46 57 -63 70 -117 83 -60 16 -63 18 -45 29 8
5 19 5 26 0 7 -7 19 -1 34 15 13 14 29 25 36 25 7 0 14 5 16 10 2 7 16 5 40
-5 21 -8 39 -15 42 -15 5 0 20 53 17 64 -1 4 5 19 14 32 9 14 13 30 9 36 -11
18 19 -3 34 -24 12 -17 15 -17 38 -1 14 9 24 12 23 7 -4 -22 2 -34 16 -34 8 0
15 -7 15 -15 0 -9 10 -15 26 -15 29 0 29 22 -1 26 -17 2 -34 20 -35 35 0 4 9
9 20 12 13 3 20 0 20 -10 0 -8 5 -11 10 -8 6 4 13 -8 17 -25 3 -18 9 -27 13
-20 4 6 11 10 16 9 21 -4 28 2 14 11 -13 8 -13 10 2 10 9 0 20 9 23 20 7 23
-3 80 -14 80 -14 0 -30 62 -21 81 6 10 10 20 10 23 0 3 -118 6 -261 6 l-261 0
6 -22 c15 -51 24 -156 17 -195 -5 -24 -5 -61 -1 -82 5 -29 3 -44 -7 -54 -13
-13 -22 -8 -70 38 -30 30 -60 56 -68 58 -8 3 -15 30 -18 69 -3 35 -8 73 -12
86 -6 17 -3 22 9 22 17 0 23 44 8 66 -9 14 -109 15 -138 2z m636 -152 c0 -2
-7 -6 -15 -10 -8 -3 -15 -1 -15 4 0 6 7 10 15 10 8 0 15 -2 15 -4z m-466 -344
c2 -4 -5 -9 -17 -9 -17 -2 -19 0 -7 7 18 12 18 12 24 2z m301 -192 c3 -5 2
-10 -4 -10 -5 0 -13 5 -16 10 -3 6 -2 10 4 10 5 0 13 -4 16 -10z m335 -885 c0
-51 -2 -56 -27 -68 -16 -6 -30 -14 -33 -18 -9 -12 -79 -20 -107 -12 l-28 7 35
6 c25 4 35 10 34 22 -1 9 4 14 11 12 7 -3 16 0 20 5 3 6 21 18 40 25 24 10 35
23 40 45 10 46 15 38 15 -24z m-141 -162 c0 -25 -1 -25 -8 -8 -5 11 -7 23 -4
28 8 14 13 7 12 -20z m581 12 c0 -8 -4 -15 -10 -15 -5 0 -7 7 -4 15 4 8 8 15
10 15 2 0 4 -7 4 -15z m46 2 c4 -4 -2 -7 -14 -7 -12 0 -22 4 -22 9 0 10 26 9
36 -2z m-86 -12 c0 -8 -7 -15 -15 -15 -9 0 -12 6 -9 15 4 8 10 15 15 15 5 0 9
-7 9 -15z m193 -132 c-7 -2 -19 -2 -25 0 -7 3 -2 5 12 5 14 0 19 -2 13 -5z
m62 -22 c-6 -5 -25 10 -25 20 0 5 6 4 14 -3 8 -7 12 -15 11 -17z m50 -21 c4
-6 -10 -8 -35 -6 -56 6 -64 16 -12 16 22 0 44 -4 47 -10z m-805 -40 c-14 -4
-34 -8 -45 -8 l-20 -1 20 9 c11 5 31 8 45 8 l25 0 -25 -8z m100 -5 c0 -9 -11
-26 -25 -39 -14 -13 -25 -28 -25 -33 0 -22 -33 -37 -73 -34 -50 3 -64 10 -46
23 13 9 -14 4 -48 -9 -7 -3 -13 -1 -13 5 0 5 -12 7 -26 4 -16 -3 -25 -1 -21 5
5 8 37 10 55 4 7 -3 17 2 15 8 -1 3 16 6 37 5 24 0 41 5 44 13 3 7 0 13 -7 14
-25 1 59 28 91 28 19 1 31 5 27 11 -3 6 -1 10 4 10 6 0 11 -7 11 -15z m273
-34 c8 -8 8 -11 0 -11 -7 0 -15 5 -18 10 -4 6 -15 8 -26 5 -10 -4 -19 -2 -19
3 0 13 48 8 63 -7z m57 9 c0 -5 7 -10 15 -10 14 0 20 -12 16 -33 -1 -5 3 -6 9
-2 6 3 8 11 5 16 -4 5 -1 9 4 9 6 0 11 -4 11 -10 0 -5 5 -10 10 -10 6 0 9 3 9
8 -3 20 3 27 25 27 15 0 22 -5 19 -13 -3 -7 -14 -10 -27 -7 -21 6 -21 6 -2 -9
19 -15 19 -16 -6 -16 -15 0 -30 -4 -33 -10 -11 -18 -51 -10 -75 15 -20 21 -21
25 -7 31 9 3 14 10 11 15 -3 5 0 9 5 9 6 0 11 -4 11 -10z m-670 -60 c0 -5 -12
-10 -27 -9 l-28 1 25 8 c14 4 26 8 28 9 1 1 2 -3 2 -9z m-200 -34 c0 -2 -8
-10 -17 -17 -16 -13 -17 -12 -4 4 13 16 21 21 21 13z m1170 -40 c0 -2 -7 -6
-15 -10 -8 -3 -15 -1 -15 4 0 6 7 10 15 10 8 0 15 -2 15 -4z m-1060 -46 c0 -5
-4 -10 -10 -10 -5 0 -10 5 -10 10 0 6 5 10 10 10 6 0 10 -4 10 -10z"/>
<path d="M4660 290 c0 -5 5 -10 11 -10 5 0 7 5 4 10 -3 6 -8 10 -11 10 -2 0
-4 -4 -4 -10z"/>
<path d="M4340 2325 c0 -6 57 -35 70 -35 5 0 10 9 10 20 0 17 -7 20 -40 20
-22 0 -40 -2 -40 -5z"/>
<path d="M3680 2116 c0 -14 5 -26 10 -26 6 0 10 9 10 19 0 11 -4 23 -10 26 -6
4 -10 -5 -10 -19z"/>
<path d="M145 2048 c-34 -40 -90 -159 -112 -238 -17 -61 -18 -123 -18 -907 l0
-841 23 -25 c12 -13 28 -25 35 -26 51 -7 73 -7 80 3 6 8 10 7 14 -1 8 -21 739
-18 841 3 42 9 79 18 81 20 11 10 -22 31 -44 27 -20 -4 -24 -2 -22 18 2 13 8
33 14 45 16 27 3 44 -36 49 -29 3 -32 1 -28 -16 3 -10 1 -19 -4 -19 -11 0 -39
54 -39 74 0 8 -6 19 -14 23 -7 4 -25 31 -39 58 -22 43 -26 63 -26 136 1 68 5
93 20 115 33 50 37 58 49 91 16 43 166 146 192 132 9 -5 33 -9 53 -9 25 0 34
-4 29 -12 -4 -6 -3 -8 3 -5 6 4 31 3 56 -2 24 -4 58 -6 75 -3 48 7 50 34 8
114 -20 38 -36 70 -36 71 0 6 67 0 88 -7 12 -4 22 -14 22 -22 0 -8 16 -36 35
-61 31 -41 35 -51 29 -87 -6 -45 -29 -68 -60 -61 -12 3 -27 -3 -37 -15 -25
-29 -21 -38 16 -36 26 1 32 -3 32 -19 0 -11 6 -30 13 -42 10 -18 9 -24 -4 -37
-10 -11 -13 -23 -8 -38 14 -40 12 -46 -10 -52 -19 -6 -20 -7 -3 -17 9 -5 22
-7 27 -4 6 3 7 -1 4 -10 -4 -10 -14 -15 -25 -12 -11 3 -23 -1 -27 -9 -5 -8
-18 -16 -29 -17 -19 -1 -19 -3 9 -38 37 -46 52 -53 71 -31 20 23 59 102 50
102 -4 0 0 6 9 13 18 14 42 86 57 171 7 38 11 316 11 766 l0 707 -102 6 c-57
3 -372 5 -701 5 l-598 -1 -24 -29z m400 -808 c3 -5 -4 -11 -17 -11 l-23 -2 23
-4 c12 -2 22 -9 22 -14 0 -5 11 -7 25 -3 22 5 24 4 18 -12 -6 -16 -5 -17 9 -6
14 11 16 10 11 -7 -3 -12 -13 -22 -22 -22 -14 -1 -13 -2 2 -6 28 -7 19 -23
-12 -21 -16 1 -27 6 -24 10 2 5 -7 6 -21 2 -18 -4 -26 -2 -26 6 0 9 -6 8 -18
-3 -27 -25 -36 -21 -12 5 22 24 26 43 10 53 -6 4 -1 14 12 25 26 22 34 24 43
10z m-431 -70 c20 -50 20 -49 -5 -43 -11 3 -25 17 -30 30 -7 20 -12 23 -23 14
-9 -7 -17 -8 -20 -3 -3 6 5 13 19 16 14 4 25 11 25 16 0 24 19 7 34 -30z m22
-87 c9 -39 21 -51 72 -74 32 -15 54 -19 83 -14 45 8 51 -1 12 -16 -38 -15
-156 -22 -148 -9 3 6 1 10 -6 10 -6 0 -9 8 -6 19 3 14 -1 21 -15 23 -15 2 -22
12 -24 36 -2 18 1 32 7 32 5 0 7 5 4 10 -3 6 -2 10 4 10 6 0 14 -12 17 -27z
m1289 17 c-3 -5 -14 -10 -23 -10 -15 0 -15 2 -2 10 20 13 33 13 25 0z m-872
-109 c-15 -22 -35 -40 -43 -40 -13 -1 -13 0 0 9 13 8 13 11 1 19 -7 5 -10 14
-7 20 7 11 68 41 74 36 2 -2 -9 -21 -25 -44z m740 21 c-2 -7 8 -12 21 -12 38
0 40 -17 3 -23 -30 -4 -87 9 -87 20 0 3 8 12 18 19 20 16 48 13 45 -4z m174 2
c-3 -3 -12 -4 -19 -1 -8 3 -5 6 6 6 11 1 17 -2 13 -5z m-7 -88 c0 -7 -8 -16
-19 -19 -14 -3 -17 0 -14 14 6 22 33 26 33 5z m-973 -32 c-3 -3 -12 -4 -19 -1
-8 3 -5 6 6 6 11 1 17 -2 13 -5z m813 -114 c0 -5 -2 -10 -4 -10 -3 0 -8 5 -11
10 -3 6 -1 10 4 10 6 0 11 -4 11 -10z m-1130 -170 c9 -16 8 -20 -5 -20 -8 0
-15 9 -15 20 0 11 2 20 5 20 2 0 9 -9 15 -20z m276 -259 c-4 -5 6 -14 21 -20
l28 -11 -30 6 c-16 3 -32 7 -33 9 -5 4 7 25 14 25 3 0 3 -4 0 -9z m87 -58 c-7
-2 -19 -2 -25 0 -7 3 -2 5 12 5 14 0 19 -2 13 -5z m27 -53 c0 -5 -10 -10 -22
-9 -22 0 -22 1 -3 9 11 5 21 9 23 9 1 1 2 -3 2 -9z m57 -216 c-3 -3 -12 -4
-19 -1 -8 3 -5 6 6 6 11 1 17 -2 13 -5z"/>
<path d="M4222 2059 c2 -7 10 -15 17 -17 8 -3 12 1 9 9 -2 7 -10 15 -17 17 -8
3 -12 -1 -9 -9z"/>
<path d="M4135 1710 c3 -5 10 -10 16 -10 5 0 9 5 9 10 0 6 -7 10 -16 10 -8 0
-12 -4 -9 -10z"/>
<path d="M4226 1660 c-12 -21 -14 -35 -8 -43 11 -14 12 -47 1 -47 -14 0 -22
-72 -10 -91 6 -11 11 -27 11 -36 1 -25 33 -86 44 -84 5 2 12 -3 16 -9 6 -9 13
-9 28 -1 19 10 22 8 31 -21 5 -18 10 -25 10 -15 1 10 -4 28 -11 40 -7 12 -13
27 -14 32 -16 70 -16 78 -6 71 9 -5 9 0 2 18 -6 17 -6 26 1 26 5 0 2 15 -8 33
-9 17 -16 35 -15 40 1 4 -3 7 -9 7 -5 0 -7 4 -4 10 9 14 -13 50 -31 50 -10 0
-13 7 -8 25 8 33 2 32 -20 -5z"/>
<path d="M4396 1525 c-3 -9 0 -15 9 -15 16 0 20 16 6 24 -5 3 -11 -1 -15 -9z"/>
<path d="M4400 1484 c0 -9 5 -12 11 -8 9 5 10 -3 5 -29 -6 -31 -4 -36 9 -31
25 10 15 76 -12 82 -7 1 -13 -5 -13 -14z"/>
<path d="M4379 1441 c6 -10 7 -21 4 -25 -3 -3 -2 -6 4 -6 6 0 13 11 15 25 4
20 1 25 -14 25 -15 0 -17 -3 -9 -19z"/>
<path d="M4408 1334 c4 -32 5 -33 18 -17 18 24 17 31 -4 42 -16 8 -17 6 -14
-25z"/>
<path d="M4685 1330 c-15 -16 -15 -22 -5 -35 19 -23 27 -18 32 20 5 40 -1 43
-27 15z"/>
<path d="M2575 1302 c-17 -6 -140 -76 -249 -142 l-29 -18 89 -6 c49 -3 211 -9
359 -13 236 -6 259 -8 180 -15 -49 -5 -106 -6 -125 -3 -19 2 -152 7 -295 10
-143 3 -302 11 -353 16 -51 6 -130 10 -175 9 -45 0 -126 2 -180 6 l-99 6 4
-283 c5 -319 10 -346 80 -489 33 -68 59 -102 128 -171 72 -73 101 -94 181
-133 129 -63 205 -76 435 -76 226 0 302 14 434 77 79 38 107 59 180 132 95 96
149 186 183 306 17 59 21 109 25 318 l4 248 -69 -2 c-70 -2 -128 9 -198 36
l-40 16 75 -6 c41 -3 110 -8 153 -12 74 -6 77 -5 77 16 0 12 -8 24 -17 27 -10
3 -27 9 -38 14 -49 20 -63 23 -110 27 -27 1 -83 10 -123 20 -69 15 -76 15
-122 -1 -67 -24 -127 -12 -224 47 -74 46 -99 52 -141 39z m-412 -349 c-7 -2
-19 -2 -25 0 -7 3 -2 5 12 5 14 0 19 -2 13 -5z m-268 -62 c-3 -6 -11 -11 -17
-11 -6 0 -6 6 2 15 14 17 26 13 15 -4z"/>
<path d="M1165 730 c3 -5 1 -11 -5 -15 -15 -10 -12 -32 6 -39 14 -5 15 -4 5 8
-10 12 -7 15 21 18 l33 3 -33 17 c-18 9 -30 13 -27 8z"/>
<path d="M1230 696 c0 -2 7 -6 15 -10 8 -3 15 -1 15 4 0 6 -7 10 -15 10 -8 0
-15 -2 -15 -4z"/>
<path d="M1294 669 c-4 -7 -1 -10 7 -7 8 3 23 1 34 -4 20 -9 20 -9 1 6 -23 19
-32 20 -42 5z"/>
<path d="M1147 641 c-4 -17 -3 -21 5 -13 5 5 8 16 6 23 -3 8 -7 3 -11 -10z"/>
<path d="M1158 583 c7 -3 16 -2 19 1 4 3 -2 6 -13 5 -11 0 -14 -3 -6 -6z"/>
<path d="M1208 523 c-10 -2 -18 -8 -18 -13 0 -5 7 -7 16 -3 10 4 22 -1 29 -11
11 -15 13 -14 17 9 5 26 -3 29 -44 18z"/>
<path d="M4750 385 c0 -8 4 -15 9 -15 5 0 11 7 15 15 3 9 0 15 -9 15 -8 0 -15
-7 -15 -15z"/>
<path d="M5016 331 c8 -8 74 -8 74 -1 0 4 -18 7 -39 6 -22 0 -38 -3 -35 -5z"/>
<path d="M3962 96 l-23 -12 32 -32 c28 -28 69 -43 69 -27 0 15 -34 55 -46 55
-8 0 -11 6 -8 15 7 18 6 18 -24 1z"/>
</g>
</svg>
